<svg xmlns="http://www.w3.org/2000/svg" viewBox="0 0 64 64" id="election-form">
    <path
        d="M24.5 45.5c-2.2 0-4-1.8-4-4s1.8-4 4-4 4 1.8 4 4-1.8 4-4 4zm0-7c-1.7 0-3 1.3-3 3s1.3 3 3 3 3-1.3 3-3-1.3-3-3-3z">
    </path>
    <path
        d="M24.8 39.5l.4.9c0 .1.1.1.2.2l1 .1c.2 0 .3.3.2.5l-.7.7c-.1.1-.1.2-.1.2l.2 1c0 .2-.2.4-.4.3l-.9-.5h-.3l-.9.5c-.2.1-.4-.1-.4-.3l.2-1c0-.1 0-.2-.1-.2l-.7-.7c-.2-.2-.1-.4.2-.5l1-.1c.1 0 .2-.1.2-.2l.4-.9c.1-.2.3-.2.5 0zM48.5 18h-25c-.3 0-.5-.2-.5-.5s.2-.5.5-.5h25c.3 0 .5.2.5.5s-.2.5-.5.5zM48.5 21h-30c-.3 0-.5-.2-.5-.5s.2-.5.5-.5h30c.3 0 .5.2.5.5s-.2.5-.5.5zM48.5 24h-30c-.3 0-.5-.2-.5-.5s.2-.5.5-.5h30c.3 0 .5.2.5.5s-.2.5-.5.5zM48.5 27h-30c-.3 0-.5-.2-.5-.5s.2-.5.5-.5h30c.3 0 .5.2.5.5s-.2.5-.5.5zM48.5 30h-30c-.3 0-.5-.2-.5-.5s.2-.5.5-.5h30c.3 0 .5.2.5.5s-.2.5-.5.5zM40.5 33h-22c-.3 0-.5-.2-.5-.5s.2-.5.5-.5h22c.3 0 .5.2.5.5s-.2.5-.5.5zM48.5 36h-9c-.3 0-.5-.2-.5-.5s.2-.5.5-.5h9c.3 0 .5.2.5.5s-.2.5-.5.5zM48.5 39h-13c-.3 0-.5-.2-.5-.5s.2-.5.5-.5h13c.3 0 .5.2.5.5s-.2.5-.5.5zM48.5 42h-13c-.3 0-.5-.2-.5-.5s.2-.5.5-.5h13c.3 0 .5.2.5.5s-.2.5-.5.5zM48.5 48h-13c-.3 0-.5-.2-.5-.5s.2-.5.5-.5h13c.3 0 .5.2.5.5s-.2.5-.5.5zM43.5 13h-20c-.3 0-.5-.2-.5-.5v-3c0-.3.2-.5.5-.5h20c.3 0 .5.2.5.5v3c0 .3-.2.5-.5.5zM24 12h19v-2H24v2z">
    </path>
    <path
        d="M53.5 51c-.3 0-.5-.2-.5-.5V9c0-2.2-1.8-4-4-4H9c-.3 0-.5-.2-.5-.5S8.7 4 9 4h40c2.8 0 5 2.2 5 5v41.5c0 .3-.2.5-.5.5z">
    </path>
    <path d="M13.5 55.5c-.3 0-.5-.2-.5-.5V9c0-.3.2-.5.5-.5s.5.2.5.5v46c0 .3-.2.5-.5.5z"></path>
    <path
        d="M55 60H18c-2.8 0-5-2.2-5-5 0-.3.2-.5.5-.5s.5.2.5.5c0 2.2 1.8 4 4 4s4-1.8 4-4-1.8-4-4-4c-.3 0-.5-.2-.5-.5s.2-.5.5-.5h37c2.8 0 5 2.2 5 5s-2.2 5-5 5zm-34-1h34c2.2 0 4-1.8 4-4s-1.8-4-4-4H21c1.2.9 2 2.4 2 4s-.8 3.1-2 4zM13.5 14H9c-2.8 0-5-2.2-5-5s2.2-5 5-5 5 2.2 5 5v4.5c0 .3-.2.5-.5.5zM9 5C6.8 5 5 6.8 5 9s1.8 4 4 4h4V9c0-2.2-1.8-4-4-4zM25.8 48c-.3 0-.6-.1-.9-.3-.2-.1-.5-.1-.7 0-.4.3-.9.3-1.4.2-.5-.1-.8-.4-1.1-.9-.1-.2-.4-.4-.6-.4-.5 0-.9-.2-1.3-.5s-.5-.8-.5-1.3c0-.3-.1-.5-.4-.6-.4-.2-.7-.6-.9-1.1-.1-.5 0-1 .2-1.4.1-.2.1-.5 0-.7-.3-.4-.3-.9-.2-1.4.1-.5.4-.8.9-1.1.2-.1.4-.4.4-.6 0-.5.2-.9.5-1.3.3-.3.8-.5 1.3-.5.3 0 .5-.1.6-.4.2-.4.6-.7 1.1-.9.5-.1 1 0 1.4.2.2.1.5.1.7 0 .4-.3.9-.3 1.4-.2.5.1.8.4 1.1.9.1.2.4.4.6.4.5 0 .9.2 1.3.5s.5.8.5 1.3c0 .3.1.5.4.6.4.2.7.6.9 1.1.1.5 0 1-.2 1.4-.1.2-.1.5 0 .7.3.4.3.9.2 1.4-.1.5-.4.8-.9 1.1-.2.1-.4.4-.4.6 0 .5-.2.9-.5 1.3-.3.3-.8.5-1.3.5-.3 0-.5.1-.6.4-.2.4-.6.7-1.1.9-.2.1-.4.1-.5.1zm-1.3-1.4c.3 0 .6.1.9.3.2.1.4.1.6.1.2-.1.3-.2.4-.4.3-.6.9-1 1.6-.9.2 0 .4-.1.5-.2s.2-.3.2-.5c0-.7.3-1.3.9-1.6.2-.1.3-.2.4-.4.1-.2 0-.4-.1-.6-.4-.6-.4-1.3 0-1.8.1-.2.1-.4.1-.6-.1-.2-.2-.3-.4-.4-.6-.3-.9-.9-.9-1.6 0-.2-.1-.4-.2-.5s-.3-.2-.5-.2c-.7 0-1.3-.3-1.6-.9-.1-.2-.2-.3-.4-.4-.2 0-.4 0-.6.1-.6.4-1.3.4-1.8 0-.2-.1-.4-.1-.6-.1-.2.1-.3.2-.4.4-.3.6-.9 1-1.6.9-.2 0-.4.1-.5.2s-.2.3-.2.5c0 .7-.3 1.3-.9 1.6-.2.1-.3.2-.4.4-.1.2 0 .4.1.6.4.6.4 1.3 0 1.8-.1.2-.1.4-.1.6.1.2.2.3.4.4.6.3.9.9.9 1.6 0 .2.1.4.2.5.1.1.3.2.5.2.7 0 1.3.3 1.6.9.1.2.2.3.4.4.2 0 .4 0 .6-.1.3-.2.6-.3.9-.3zM48.2 46c-.2 0-.3-.1-.4-.3-.5-.9-1.9-1-2.5-.1-.1.1-.2.2-.3.2-.1 0-.3 0-.4-.1-.4-.3-.9-.3-1.3.1-.1.1-.3.2-.5.1s-.3-.2-.3-.4c0-.3-.2-.5-.5-.5s-.5.2-.5.5c0 .2-.1.4-.3.4-.2.1-.4 0-.5-.1-.3-.3-.9-.4-1.3-.1-.1.1-.2.1-.4.1-.1 0-.3-.1-.3-.2-.6-.8-2-.7-2.5.1-.1.2-.4.3-.7.2-.2-.1-.3-.4-.2-.7.4-.8 1.3-1.3 2.2-1.3.6 0 1.2.2 1.7.7.5-.2 1.1-.2 1.6 0 .2-.3.7-.6 1.2-.6s1 .3 1.2.7c.5-.2 1.1-.2 1.6 0 .5-.4 1.1-.7 1.7-.7.9 0 1.7.5 2.2 1.3.1.2.1.5-.2.7h-.3z">
    </path>
</svg>